<mxfile host="app.diagrams.net" agent="Mozilla/5.0 (X11; Ubuntu; Linux x86_64; rv:131.0) Gecko/20100101 Firefox/131.0" version="24.7.17">
  <diagram name="Page-1" id="eYT8MurtRIRIbceyD2DO">
    <mxGraphModel dx="2858" dy="1890" grid="1" gridSize="10" guides="1" tooltips="1" connect="1" arrows="1" fold="1" page="1" pageScale="1" pageWidth="850" pageHeight="1100" math="0" shadow="0">
      <root>
        <mxCell id="0" />
        <mxCell id="1" parent="0" />
        <mxCell id="6BbbK5XL79ugTTDlHGnH-5" style="edgeStyle=orthogonalEdgeStyle;rounded=0;orthogonalLoop=1;jettySize=auto;html=1;" edge="1" parent="1" source="6BbbK5XL79ugTTDlHGnH-1" target="6BbbK5XL79ugTTDlHGnH-4">
          <mxGeometry relative="1" as="geometry" />
        </mxCell>
        <mxCell id="6BbbK5XL79ugTTDlHGnH-1" value="f1fantasytools" style="aspect=fixed;sketch=0;html=1;dashed=0;whitespace=wrap;verticalLabelPosition=bottom;verticalAlign=top;fillColor=#2875E2;strokeColor=#ffffff;points=[[0.005,0.63,0],[0.1,0.2,0],[0.9,0.2,0],[0.5,0,0],[0.995,0.63,0],[0.72,0.99,0],[0.5,1,0],[0.28,0.99,0]];shape=mxgraph.kubernetes.icon2;kubernetesLabel=1;prIcon=api" vertex="1" parent="1">
          <mxGeometry x="-50" y="165" width="50" height="48" as="geometry" />
        </mxCell>
        <mxCell id="6BbbK5XL79ugTTDlHGnH-6" style="edgeStyle=orthogonalEdgeStyle;rounded=0;orthogonalLoop=1;jettySize=auto;html=1;" edge="1" parent="1" source="6BbbK5XL79ugTTDlHGnH-3" target="6BbbK5XL79ugTTDlHGnH-4">
          <mxGeometry relative="1" as="geometry" />
        </mxCell>
        <mxCell id="6BbbK5XL79ugTTDlHGnH-3" value="fastf1" style="shape=image;html=1;verticalAlign=top;verticalLabelPosition=bottom;labelBackgroundColor=#ffffff;imageAspect=0;aspect=fixed;image=https://cdn0.iconfinder.com/data/icons/long-shadow-web-icons/512/python-128.png" vertex="1" parent="1">
          <mxGeometry x="-50" y="255" width="50" height="50" as="geometry" />
        </mxCell>
        <mxCell id="6BbbK5XL79ugTTDlHGnH-44" style="edgeStyle=orthogonalEdgeStyle;rounded=0;orthogonalLoop=1;jettySize=auto;html=1;" edge="1" parent="1" source="6BbbK5XL79ugTTDlHGnH-4" target="6BbbK5XL79ugTTDlHGnH-42">
          <mxGeometry relative="1" as="geometry" />
        </mxCell>
        <mxCell id="6BbbK5XL79ugTTDlHGnH-4" value="&lt;div&gt;Extraction Scripts&lt;br&gt;&lt;/div&gt;" style="html=1;whiteSpace=wrap;strokeColor=none;fillColor=#0079D6;labelPosition=center;verticalLabelPosition=middle;verticalAlign=top;align=center;fontSize=12;outlineConnect=0;spacingTop=-6;fontColor=#FFFFFF;sketch=0;shape=mxgraph.sitemap.script;" vertex="1" parent="1">
          <mxGeometry x="70" y="200" width="120" height="70" as="geometry" />
        </mxCell>
        <mxCell id="6BbbK5XL79ugTTDlHGnH-10" value="Aribyte data mover" style="shape=image;verticalLabelPosition=bottom;labelBackgroundColor=default;verticalAlign=top;aspect=fixed;imageAspect=0;image=https://seeklogo.com/images/A/airbyte-logo-CC005A0105-seeklogo.com.png;" vertex="1" parent="1">
          <mxGeometry x="736.15" y="80" width="37.67" height="38.97" as="geometry" />
        </mxCell>
        <mxCell id="6BbbK5XL79ugTTDlHGnH-16" style="edgeStyle=orthogonalEdgeStyle;rounded=0;orthogonalLoop=1;jettySize=auto;html=1;" edge="1" parent="1" source="6BbbK5XL79ugTTDlHGnH-11" target="6BbbK5XL79ugTTDlHGnH-4">
          <mxGeometry relative="1" as="geometry" />
        </mxCell>
        <mxCell id="6BbbK5XL79ugTTDlHGnH-62" style="edgeStyle=orthogonalEdgeStyle;rounded=0;orthogonalLoop=1;jettySize=auto;html=1;entryX=0.5;entryY=0;entryDx=0;entryDy=0;" edge="1" parent="1" source="6BbbK5XL79ugTTDlHGnH-11" target="6BbbK5XL79ugTTDlHGnH-59">
          <mxGeometry relative="1" as="geometry" />
        </mxCell>
        <mxCell id="6BbbK5XL79ugTTDlHGnH-11" value="Dagster Orchestration" style="shape=image;verticalLabelPosition=bottom;labelBackgroundColor=default;verticalAlign=top;aspect=fixed;imageAspect=0;image=https://dagster.io/images/brand/logos/dagster-primary-mark.png;" vertex="1" parent="1">
          <mxGeometry x="429.48" y="-20" width="60" height="60" as="geometry" />
        </mxCell>
        <mxCell id="6BbbK5XL79ugTTDlHGnH-13" value="Dbt warehouse transformations" style="shape=image;verticalLabelPosition=bottom;labelBackgroundColor=default;verticalAlign=top;aspect=fixed;imageAspect=0;image=https://seeklogo.com/images/D/dbt-logo-500AB0BAA7-seeklogo.com.png;" vertex="1" parent="1">
          <mxGeometry x="968.8399999999999" y="78.97" width="40" height="40" as="geometry" />
        </mxCell>
        <mxCell id="6BbbK5XL79ugTTDlHGnH-14" value="" style="shape=curlyBracket;whiteSpace=wrap;html=1;rounded=1;labelPosition=left;verticalLabelPosition=middle;align=right;verticalAlign=middle;rotation=90;" vertex="1" parent="1">
          <mxGeometry x="943.84" y="-140" width="20" height="390" as="geometry" />
        </mxCell>
        <mxCell id="6BbbK5XL79ugTTDlHGnH-65" style="edgeStyle=orthogonalEdgeStyle;rounded=0;orthogonalLoop=1;jettySize=auto;html=1;" edge="1" parent="1" source="6BbbK5XL79ugTTDlHGnH-19">
          <mxGeometry relative="1" as="geometry">
            <mxPoint x="730" y="235" as="targetPoint" />
          </mxGeometry>
        </mxCell>
        <mxCell id="6BbbK5XL79ugTTDlHGnH-19" value="" style="strokeColor=#dddddd;shadow=1;strokeWidth=1;rounded=1;absoluteArcSize=1;arcSize=2;" vertex="1" parent="1">
          <mxGeometry x="550" y="205" width="150" height="60" as="geometry" />
        </mxCell>
        <mxCell id="6BbbK5XL79ugTTDlHGnH-20" value="&lt;div&gt;&lt;font color=&quot;#000000&quot;&gt;GCP - Bronze&lt;/font&gt;&lt;br&gt;&lt;/div&gt;&lt;div&gt;Storage Bucket&lt;/div&gt;" style="editableCssRules=.*;html=1;fontColor=#999999;shape=image;verticalLabelPosition=middle;verticalAlign=middle;labelPosition=right;align=left;spacingLeft=20;part=1;points=[];imageAspect=0;image=data:image/svg+xml,PHN2ZyB4bWxucz0iaHR0cDovL3d3dy53My5vcmcvMjAwMC9zdmciIHhtbG5zOnY9Imh0dHBzOi8vdmVjdGEuaW8vbmFubyIgd2lkdGg9IjIwIiBoZWlnaHQ9IjE2IiB2aWV3Qm94PSIwIDAgMjAgMTYiPiYjeGE7CTxzdHlsZSB0eXBlPSJ0ZXh0L2NzcyI+JiN4YTsJLnN0MHtmaWxsOiM0Mjg1ZjQ7fSYjeGE7CS5zdDF7ZmlsbDojNjY5ZGY2O30mI3hhOwkuc3Qye2ZpbGw6I2FlY2JmYTt9JiN4YTsJLnN0M3tmaWxsOiNmZmY7fSYjeGE7CTwvc3R5bGU+JiN4YTsJPHBhdGggY2xhc3M9InN0MiIgZD0iTTAgMGgyMHY3SDB6Ii8+JiN4YTsJPHBhdGggY2xhc3M9InN0MSIgZD0iTTE4IDBoMnY3aC0yeiIvPiYjeGE7CTxwYXRoIGNsYXNzPSJzdDAiIGQ9Ik0xOCA3bDItN2gtMnoiLz4mI3hhOwk8cGF0aCBjbGFzcz0ic3QxIiBkPSJNMCAwaDJ2N0gweiIvPiYjeGE7CTxnIGNsYXNzPSJzdDMiPiYjeGE7CQk8cGF0aCBkPSJNNCAzaDZ2MUg0eiIvPiYjeGE7CQk8cmVjdCB4PSIxMyIgeT0iMiIgd2lkdGg9IjMiIGhlaWdodD0iMyIgcng9IjEuNSIvPiYjeGE7CTwvZz4mI3hhOwk8cGF0aCBjbGFzcz0ic3QyIiBkPSJNMCA5aDIwdjdIMHoiLz4mI3hhOwk8cGF0aCBjbGFzcz0ic3QxIiBkPSJNMTggOWgydjdoLTJ6Ii8+JiN4YTsJPHBhdGggY2xhc3M9InN0MCIgZD0iTTE4IDE2bDItN2gtMnoiLz4mI3hhOwk8cGF0aCBjbGFzcz0ic3QxIiBkPSJNMCA5aDJ2N0gweiIvPiYjeGE7CTxnIGNsYXNzPSJzdDMiPiYjeGE7CQk8cGF0aCBkPSJNNCAxMmg2djFINHoiLz4mI3hhOwkJPHJlY3QgeD0iMTMiIHk9IjExIiB3aWR0aD0iMyIgaGVpZ2h0PSIzIiByeD0iMS41Ii8+JiN4YTsJPC9nPiYjeGE7PC9zdmc+;" vertex="1" parent="6BbbK5XL79ugTTDlHGnH-19">
          <mxGeometry width="30" height="24" relative="1" as="geometry">
            <mxPoint x="15" y="18" as="offset" />
          </mxGeometry>
        </mxCell>
        <mxCell id="6BbbK5XL79ugTTDlHGnH-22" style="edgeStyle=orthogonalEdgeStyle;rounded=0;orthogonalLoop=1;jettySize=auto;html=1;entryX=0.1;entryY=0.5;entryDx=0;entryDy=0;entryPerimeter=0;" edge="1" parent="1" source="6BbbK5XL79ugTTDlHGnH-11" target="6BbbK5XL79ugTTDlHGnH-14">
          <mxGeometry relative="1" as="geometry" />
        </mxCell>
        <mxCell id="6BbbK5XL79ugTTDlHGnH-23" value="BigQuery Warehouse" style="editableCssRules=.*;html=1;shape=image;verticalLabelPosition=bottom;labelBackgroundColor=#ffffff;verticalAlign=top;aspect=fixed;imageAspect=0;image=data:image/svg+xml,PHN2ZyB4bWxucz0iaHR0cDovL3d3dy53My5vcmcvMjAwMC9zdmciIHhtbG5zOnY9Imh0dHBzOi8vdmVjdGEuaW8vbmFubyIgd2lkdGg9IjIwLjAwMTA0NTIyNzA1MDc4IiBoZWlnaHQ9IjIwLjAwMTA0NTIyNzA1MDc4IiBmaWxsLXJ1bGU9ImV2ZW5vZGQiIHZpZXdCb3g9IjAgMCAyMC4wMDEwNDUyMjcwNTA3OCAyMC4wMDEwNDUyMjcwNTA3OCI+JiN4YTsJPHN0eWxlIHR5cGU9InRleHQvY3NzIj4mI3hhOwkuc3Qwe2ZpbGw6I2FlY2JmYTt9JiN4YTsJLnN0MXtmaWxsOiM2NjlkZjY7fSYjeGE7CS5zdDJ7ZmlsbDojNDI4NWY0O30mI3hhOwk8L3N0eWxlPiYjeGE7CTxwYXRoIGNsYXNzPSJzdDAiIGQ9Ik00LjczIDguODN2Mi42M2E0LjkxIDQuOTEgMCAwIDAgMS43MSAxLjc0VjguODN6Ii8+JiN4YTsJPHBhdGggY2xhc3M9InN0MSIgZD0iTTcuODkgNi40MXY3LjUzQTcuNjIgNy42MiAwIDAgMCA5IDE0YTggOCAwIDAgMCAxIDBWNi40MXoiLz4mI3hhOwk8cGF0aCBjbGFzcz0ic3QwIiBkPSJNMTEuNjQgOS44NnYzLjI5YTUgNSAwIDAgMCAxLjctMS44MlY5Ljg2eiIvPiYjeGE7CTxwYXRoIGNsYXNzPSJzdDIiIGQ9Ik0xNS43NCAxNC4zMmwtMS40MiAxLjQyYS40Mi40MiAwIDAgMCAwIC42bDMuNTQgMy41NGEuNDIuNDIgMCAwIDAgLjU5IDBsMS40My0xLjQzYS40Mi40MiAwIDAgMCAwLS41OWwtMy41NC0zLjU0YS40Mi40MiAwIDAgMC0uNiAwIi8+JiN4YTsJPHBhdGggY2xhc3M9InN0MSIgZD0iTTkgMGE5IDkgMCAxIDAgMCAxOEE5IDkgMCAxIDAgOSAwbTAgMTUuNjlhNi42OCA2LjY4IDAgMCAxIC4wMDctMTMuMzYgNi42OCA2LjY4IDAgMCAxIDQuNzI3IDExLjQwM0E2LjY4IDYuNjggMCAwIDEgOSAxNS42OSIvPiYjeGE7PC9zdmc+;" vertex="1" parent="1">
          <mxGeometry x="817.67" y="202.5" width="65" height="65" as="geometry" />
        </mxCell>
        <mxCell id="6BbbK5XL79ugTTDlHGnH-47" style="edgeStyle=orthogonalEdgeStyle;rounded=0;orthogonalLoop=1;jettySize=auto;html=1;" edge="1" parent="1" target="6BbbK5XL79ugTTDlHGnH-23">
          <mxGeometry relative="1" as="geometry">
            <mxPoint x="780" y="235" as="sourcePoint" />
          </mxGeometry>
        </mxCell>
        <mxCell id="6BbbK5XL79ugTTDlHGnH-27" value="" style="html=1;verticalLabelPosition=bottom;align=center;labelBackgroundColor=#ffffff;verticalAlign=top;strokeWidth=2;strokeColor=#0080F0;shadow=0;dashed=0;shape=mxgraph.ios7.icons.settings;" vertex="1" parent="1">
          <mxGeometry x="739.99" y="220.00000000000003" width="30" height="30" as="geometry" />
        </mxCell>
        <mxCell id="6BbbK5XL79ugTTDlHGnH-36" value="" style="edgeStyle=orthogonalEdgeStyle;rounded=0;orthogonalLoop=1;jettySize=auto;html=1;" edge="1" parent="1" source="6BbbK5XL79ugTTDlHGnH-34" target="6BbbK5XL79ugTTDlHGnH-35">
          <mxGeometry relative="1" as="geometry" />
        </mxCell>
        <mxCell id="6BbbK5XL79ugTTDlHGnH-34" value="Bronze" style="ellipse;whiteSpace=wrap;html=1;aspect=fixed;fillColor=#ffcd28;gradientColor=#ffa500;strokeColor=#d79b00;" vertex="1" parent="1">
          <mxGeometry x="966.34" y="142.5" width="45" height="45" as="geometry" />
        </mxCell>
        <mxCell id="6BbbK5XL79ugTTDlHGnH-38" value="" style="edgeStyle=orthogonalEdgeStyle;rounded=0;orthogonalLoop=1;jettySize=auto;html=1;" edge="1" parent="1" source="6BbbK5XL79ugTTDlHGnH-35" target="6BbbK5XL79ugTTDlHGnH-37">
          <mxGeometry relative="1" as="geometry" />
        </mxCell>
        <mxCell id="6BbbK5XL79ugTTDlHGnH-35" value="Silver" style="ellipse;whiteSpace=wrap;html=1;aspect=fixed;fillColor=#f5f5f5;gradientColor=#b3b3b3;strokeColor=#666666;" vertex="1" parent="1">
          <mxGeometry x="963.84" y="207.5" width="50" height="50" as="geometry" />
        </mxCell>
        <mxCell id="6BbbK5XL79ugTTDlHGnH-51" style="edgeStyle=orthogonalEdgeStyle;rounded=0;orthogonalLoop=1;jettySize=auto;html=1;" edge="1" parent="1" source="6BbbK5XL79ugTTDlHGnH-37">
          <mxGeometry relative="1" as="geometry">
            <mxPoint x="1130" y="302.5" as="targetPoint" />
          </mxGeometry>
        </mxCell>
        <mxCell id="6BbbK5XL79ugTTDlHGnH-37" value="Gold" style="ellipse;whiteSpace=wrap;html=1;aspect=fixed;fillColor=#e3c800;strokeColor=#B09500;fontColor=#000000;" vertex="1" parent="1">
          <mxGeometry x="963.84" y="277.5" width="50" height="50" as="geometry" />
        </mxCell>
        <mxCell id="6BbbK5XL79ugTTDlHGnH-41" style="edgeStyle=orthogonalEdgeStyle;rounded=0;orthogonalLoop=1;jettySize=auto;html=1;endArrow=none;endFill=0;" edge="1" parent="1" source="6BbbK5XL79ugTTDlHGnH-40" target="6BbbK5XL79ugTTDlHGnH-23">
          <mxGeometry relative="1" as="geometry" />
        </mxCell>
        <mxCell id="6BbbK5XL79ugTTDlHGnH-40" value="" style="shape=curlyBracket;whiteSpace=wrap;html=1;rounded=1;labelPosition=left;verticalLabelPosition=middle;align=right;verticalAlign=middle;" vertex="1" parent="1">
          <mxGeometry x="930" y="162.5" width="20" height="145" as="geometry" />
        </mxCell>
        <mxCell id="6BbbK5XL79ugTTDlHGnH-60" style="edgeStyle=orthogonalEdgeStyle;rounded=0;orthogonalLoop=1;jettySize=auto;html=1;entryX=0;entryY=0.5;entryDx=0;entryDy=0;" edge="1" parent="1" source="6BbbK5XL79ugTTDlHGnH-42" target="6BbbK5XL79ugTTDlHGnH-59">
          <mxGeometry relative="1" as="geometry" />
        </mxCell>
        <mxCell id="6BbbK5XL79ugTTDlHGnH-42" value="" style="strokeColor=#dddddd;shadow=1;strokeWidth=1;rounded=1;absoluteArcSize=1;arcSize=2;" vertex="1" parent="1">
          <mxGeometry x="220" y="205" width="150" height="60" as="geometry" />
        </mxCell>
        <mxCell id="6BbbK5XL79ugTTDlHGnH-43" value="&lt;div&gt;&lt;font color=&quot;#000000&quot;&gt;GCP - Landing&lt;/font&gt;&lt;br&gt;&lt;/div&gt;&lt;div&gt;Storage Bucket&lt;/div&gt;" style="editableCssRules=.*;html=1;fontColor=#999999;shape=image;verticalLabelPosition=middle;verticalAlign=middle;labelPosition=right;align=left;spacingLeft=20;part=1;points=[];imageAspect=0;image=data:image/svg+xml,PHN2ZyB4bWxucz0iaHR0cDovL3d3dy53My5vcmcvMjAwMC9zdmciIHhtbG5zOnY9Imh0dHBzOi8vdmVjdGEuaW8vbmFubyIgd2lkdGg9IjIwIiBoZWlnaHQ9IjE2IiB2aWV3Qm94PSIwIDAgMjAgMTYiPiYjeGE7CTxzdHlsZSB0eXBlPSJ0ZXh0L2NzcyI+JiN4YTsJLnN0MHtmaWxsOiM0Mjg1ZjQ7fSYjeGE7CS5zdDF7ZmlsbDojNjY5ZGY2O30mI3hhOwkuc3Qye2ZpbGw6I2FlY2JmYTt9JiN4YTsJLnN0M3tmaWxsOiNmZmY7fSYjeGE7CTwvc3R5bGU+JiN4YTsJPHBhdGggY2xhc3M9InN0MiIgZD0iTTAgMGgyMHY3SDB6Ii8+JiN4YTsJPHBhdGggY2xhc3M9InN0MSIgZD0iTTE4IDBoMnY3aC0yeiIvPiYjeGE7CTxwYXRoIGNsYXNzPSJzdDAiIGQ9Ik0xOCA3bDItN2gtMnoiLz4mI3hhOwk8cGF0aCBjbGFzcz0ic3QxIiBkPSJNMCAwaDJ2N0gweiIvPiYjeGE7CTxnIGNsYXNzPSJzdDMiPiYjeGE7CQk8cGF0aCBkPSJNNCAzaDZ2MUg0eiIvPiYjeGE7CQk8cmVjdCB4PSIxMyIgeT0iMiIgd2lkdGg9IjMiIGhlaWdodD0iMyIgcng9IjEuNSIvPiYjeGE7CTwvZz4mI3hhOwk8cGF0aCBjbGFzcz0ic3QyIiBkPSJNMCA5aDIwdjdIMHoiLz4mI3hhOwk8cGF0aCBjbGFzcz0ic3QxIiBkPSJNMTggOWgydjdoLTJ6Ii8+JiN4YTsJPHBhdGggY2xhc3M9InN0MCIgZD0iTTE4IDE2bDItN2gtMnoiLz4mI3hhOwk8cGF0aCBjbGFzcz0ic3QxIiBkPSJNMCA5aDJ2N0gweiIvPiYjeGE7CTxnIGNsYXNzPSJzdDMiPiYjeGE7CQk8cGF0aCBkPSJNNCAxMmg2djFINHoiLz4mI3hhOwkJPHJlY3QgeD0iMTMiIHk9IjExIiB3aWR0aD0iMyIgaGVpZ2h0PSIzIiByeD0iMS41Ii8+JiN4YTsJPC9nPiYjeGE7PC9zdmc+;" vertex="1" parent="6BbbK5XL79ugTTDlHGnH-42">
          <mxGeometry width="30" height="24" relative="1" as="geometry">
            <mxPoint x="15" y="18" as="offset" />
          </mxGeometry>
        </mxCell>
        <mxCell id="6BbbK5XL79ugTTDlHGnH-66" style="edgeStyle=orthogonalEdgeStyle;rounded=0;orthogonalLoop=1;jettySize=auto;html=1;shape=link;" edge="1" parent="1">
          <mxGeometry relative="1" as="geometry">
            <mxPoint x="1148.595" y="277.5" as="targetPoint" />
            <mxPoint x="1149" y="150" as="sourcePoint" />
          </mxGeometry>
        </mxCell>
        <mxCell id="6BbbK5XL79ugTTDlHGnH-48" value="Aribyte data mover" style="shape=image;verticalLabelPosition=bottom;labelBackgroundColor=default;verticalAlign=top;aspect=fixed;imageAspect=0;image=https://seeklogo.com/images/A/airbyte-logo-CC005A0105-seeklogo.com.png;" vertex="1" parent="1">
          <mxGeometry x="1126.17" y="80" width="37.67" height="38.97" as="geometry" />
        </mxCell>
        <mxCell id="6BbbK5XL79ugTTDlHGnH-54" style="edgeStyle=orthogonalEdgeStyle;rounded=0;orthogonalLoop=1;jettySize=auto;html=1;entryX=0;entryY=0.5;entryDx=0;entryDy=0;" edge="1" parent="1" source="6BbbK5XL79ugTTDlHGnH-49" target="6BbbK5XL79ugTTDlHGnH-52">
          <mxGeometry relative="1" as="geometry" />
        </mxCell>
        <mxCell id="6BbbK5XL79ugTTDlHGnH-49" value="" style="html=1;verticalLabelPosition=bottom;align=center;labelBackgroundColor=#ffffff;verticalAlign=top;strokeWidth=2;strokeColor=#0080F0;shadow=0;dashed=0;shape=mxgraph.ios7.icons.settings;" vertex="1" parent="1">
          <mxGeometry x="1133.84" y="287.5" width="30" height="30" as="geometry" />
        </mxCell>
        <mxCell id="6BbbK5XL79ugTTDlHGnH-52" value="Postgres DB" style="shape=image;verticalLabelPosition=bottom;labelBackgroundColor=default;verticalAlign=top;aspect=fixed;imageAspect=0;image=https://upload.wikimedia.org/wikipedia/commons/thumb/2/29/Postgresql_elephant.svg/1985px-Postgresql_elephant.svg.png;" vertex="1" parent="1">
          <mxGeometry x="1252" y="279.04" width="45.51" height="46.92" as="geometry" />
        </mxCell>
        <mxCell id="6BbbK5XL79ugTTDlHGnH-57" style="edgeStyle=orthogonalEdgeStyle;rounded=0;orthogonalLoop=1;jettySize=auto;html=1;" edge="1" parent="1" source="6BbbK5XL79ugTTDlHGnH-55" target="6BbbK5XL79ugTTDlHGnH-52">
          <mxGeometry relative="1" as="geometry" />
        </mxCell>
        <mxCell id="6BbbK5XL79ugTTDlHGnH-55" value="Metabase Reporting" style="shape=image;verticalLabelPosition=bottom;labelBackgroundColor=default;verticalAlign=top;aspect=fixed;imageAspect=0;image=https://static-00.iconduck.com/assets.00/metabase-icon-1619x2048-qd3c9qpo.png;" vertex="1" parent="1">
          <mxGeometry x="1370" y="277.84" width="39" height="49.31" as="geometry" />
        </mxCell>
        <mxCell id="6BbbK5XL79ugTTDlHGnH-61" style="edgeStyle=orthogonalEdgeStyle;rounded=0;orthogonalLoop=1;jettySize=auto;html=1;entryX=0;entryY=0.5;entryDx=0;entryDy=0;" edge="1" parent="1" source="6BbbK5XL79ugTTDlHGnH-59" target="6BbbK5XL79ugTTDlHGnH-19">
          <mxGeometry relative="1" as="geometry" />
        </mxCell>
        <mxCell id="6BbbK5XL79ugTTDlHGnH-59" value="Polars pre-processing" style="shape=image;verticalLabelPosition=bottom;labelBackgroundColor=default;verticalAlign=top;aspect=fixed;imageAspect=0;image=https://www.eu-startups.com/wp-content/uploads/2023/08/polars1-e1691058482205.png;" vertex="1" parent="1">
          <mxGeometry x="410" y="203.62" width="98.96" height="62.75" as="geometry" />
        </mxCell>
        <mxCell id="6BbbK5XL79ugTTDlHGnH-64" style="edgeStyle=orthogonalEdgeStyle;rounded=0;orthogonalLoop=1;jettySize=auto;html=1;entryX=0.533;entryY=0;entryDx=0;entryDy=0;entryPerimeter=0;shape=link;" edge="1" parent="1">
          <mxGeometry relative="1" as="geometry">
            <mxPoint x="755" y="150" as="sourcePoint" />
            <mxPoint x="754.4999999999998" y="213" as="targetPoint" />
            <Array as="points">
              <mxPoint x="755" y="163" />
              <mxPoint x="755" y="163" />
            </Array>
          </mxGeometry>
        </mxCell>
      </root>
    </mxGraphModel>
  </diagram>
</mxfile>
